# AST/ASF file generated using VICON BodyLanguage
# -----------------------------------------------
:version 1.10
:name VICON
:units
  mass 1.0
  length 0.45
  angle deg
:documentation
   .ast/.asf automatically generated from VICON data using
   VICON BodyBuilder and BodyLanguage model FoxedUp or BRILLIANT.MOD
:root
   order TX TY TZ RX RY RZ
   axis XYZ
   position 0 0 0  
   orientation 0 0 0 
:bonedata
  begin
     id 1 
     name lhipjoint
     direction 0.702568 -0.596508 0.388042 
     length 2.56661 
     axis 0 0 0  XYZ
  end
  begin
     id 2 
     name lfemur
     direction 0.34202 -0.939693 0  
     length 6.58374  
     axis 0 0 20  XYZ
    dof rx ry rz
    limits (-160.0 20.0)
           (-70.0 70.0)
           (-60.0 70.0)
  end
  begin
     id 3 
     name ltibia
     direction 0.34202 -0.939693 0   
     length 6.62538   
     axis 0 0 20   XYZ
    dof rx
    limits (-10.0 170.0)
  end
  begin
     id 4 
     name lfoot
     direction 0.10455 -0.287249 0.952133   
     length 2.26699   
     axis -90 7.62852e-016 20   XYZ
    dof rx rz
    limits (-45.0 90.0)
           (-70.0 20.0)
  end
  begin
     id 5 
     name ltoes
     direction 1.53572e-011 -4.22322e-011 1   
     length 1.12949   
     axis -90 7.62852e-016 20   XYZ
    dof rx
    limits (-90.0 20.0)
  end
  begin
     id 6 
     name rhipjoint
     direction -0.728055 -0.574632 0.373811   
     length 2.66432  
     axis 0 0 0  XYZ 
  end
  begin
     id 7 
     name rfemur
     direction -0.34202 -0.939693 0   
     length 6.66732   
     axis 0 0 -20   XYZ
    dof rx ry rz
    limits (-160.0 20.0)
           (-70.0 70.0)
           (-70.0 60.0)
  end
  begin
     id 8 
     name rtibia
     direction -0.34202 -0.939693 0   
     length 6.59288   
     axis 0 0 -20   XYZ
    dof rx
    limits (-10.0 170.0)
 end
 begin
     id 9 
     name rfoot
     direction -0.119193 -0.327479 0.93731   
     length 2.38061  
     axis -90 -7.62852e-016 -20   XYZ
    dof rx rz
    limits (-45.0 90.0)
           (-20.0 70.0)
  end
  begin
     id 10 
     name rtoes
     direction -1.53547e-011 -4.21827e-011 1   
     length 1.17899   
     axis -90 -7.62852e-016 -20   XYZ
    dof rx
    limits (-90.0 20.0)
  end
  begin
     id 11 
     name lowerback
     direction -0.000416114 0.999912 -0.0132284   
     length 2.12109   
     axis 0 0 0   XYZ
    dof rx ry rz
    limits (-20.0 45.0)
           (-30.0 30.0)
           (-30.0 30.0)
  end
  begin
     id 12 
     name upperback
     direction -0.00136371 0.99809 0.0617608   
     length 2.10067   
     axis 0 0 0   XYZ
    dof rx ry rz
    limits (-20.0 45.0)
           (-30.0 30.0)
           (-30.0 30.0)
  end
  begin
     id 13 
     name thorax
     direction -3.43026e-005 0.997776 0.0666515   
     length 2.10618   
     axis 0 0 0   XYZ
    dof rx ry rz
    limits (-20.0 45.0)
           (-30.0 30.0)
           (-30.0 30.0)
  end
  begin
     id 14 
     name lowerneck
     direction 0.0398646 0.998418 0.0396592   
     length 1.83817   
     axis 0 0 0   XYZ
    dof rx ry rz
    limits (-20.0 45.0)
           (-30.0 30.0)
           (-30.0 30.0)
  end
  begin
     id 15 
     name upperneck
     direction -0.0367268 0.961527 -0.272244   
     length 1.81975   
     axis 0 0 0   XYZ
    dof rx ry rz
    limits (-20.0 45.0)
           (-30.0 30.0)
           (-30.0 30.0)
  end
  begin
     id 16
     name head
     direction -0.0182665 0.99536 -0.0944669  
     length 1.86026  
     axis 0 0 0   XYZ
    dof rx ry rz
    limits (-20.0 45.0)
           (-30.0 30.0)
           (-30.0 30.0)
  end
  begin
     id 17 
     name lclavicle
     direction 0.924239 0.361045 0.124212  
     length 3.26878  
     axis 0 0 0   XYZ
    dof ry rz
    limits (-20.0 10.0)
           (0.0 20.0)
  end
  begin
     id 18 
     name lhumerus
     direction 1 -4.48968e-011 -2.56583e-027   
     length 4.58538   
     axis 180 -30 -90   XYZ
    dof rx ry rz
    limits (-60.0 90.0)
           (-90.0 90.0)
           (-90.0 90.0)
  end
  begin
     id 19
     name lradius
     direction 1 -4.4898e-011 -5.50375e-027   
     length 2.68935   
     axis 180 -30 -90   XYZ
    dof rx
    limits (-10.0 170.0)
  end
  begin
     id 20
     name lwrist
     direction 1 -4.48939e-011 -1.48955e-026   
     length 1.34468   
     axis 9.0955e-015 90 90   XYZ
    dof ry
    limits (-180.0 0.0)
 end
  begin
     id 21 
     name lhand
     direction 1 -4.48936e-011 -2.97907e-026   
     length 0.585058   
     axis 1.90115e-014 90 90   XYZ
    dof rx rz
    limits (-90.0 90.0)
           (-45.0 45.0)
  end
  begin
     id 22 
     name lfingers
     direction 1 -4.49082e-011 -5.96235e-026   
     length 0.471689   
     axis 3.80223e-014 90 90   XYZ
    dof rx
    limits (0.0 90.0)
  end
  begin
     id 23
     name lthumb
     direction 0.707107 -6.3489e-011 0.707107   
     length 0.677253   
     axis -90 45 -3.84942e-014   XYZ
    dof rx rz
    limits (-45.0 45.0)
           (-45.0 45.0)
  end
  begin
     id 24 
     name rclavicle
     direction -0.923098 0.371783 0.0983239   
     length 3.19656  
     axis 0 0 0   XYZ 
    dof ry rz
    limits (-10.0 20.0)
           (-20.0 0.0)
  end
  begin
     id 25 
     name rhumerus
     direction -1 -4.48976e-011 -2.5492e-027  
     length 4.4745   
     axis 180 30 90   XYZ
    dof rx ry rz
    limits (-90.0 60.0)
           (-90.0 90.0)
           (-90.0 90.0)
  end
  begin
     id 26 
     name rradius
     direction -1 -4.48941e-011 -4.36555e-027   
     length 2.93896   
     axis 180 30 90   XYZ
    dof rx
    limits (-10.0 170.0)
  end
  begin
     id 27 
     name rwrist
     direction -1 -4.49044e-011 -1.49032e-026   
     length 1.46948   
     axis 9.0955e-015 -90 -90   XYZ
    dof ry
    limits (-180.0 0.0)
  end
  begin
     id 28
     name rhand
     direction -1 -4.48826e-011 -2.97749e-026   
     length 0.405092   
     axis 1.90115e-014 -90 -90   XYZ
    dof rx rz
    limits (-90.0 90.0)
           (-45.0 45.0)
  end
  begin
     id 29
     name rfingers
     direction -1 -4.49209e-011 -5.96602e-026   
     length 0.326596   
     axis 3.80223e-014 -90 -90   XYZ
    dof rx
    limits (0.0 90.0)
  end
  begin
     id 30
     name rthumb
     direction -0.707107 -6.34776e-011 0.707107   
     length 0.468928   
     axis -90 -45 3.84942e-014   XYZ
    dof rx rz
    limits (-45.0 45.0)
           (-45.0 45.0)
  end
:hierarchy
  begin
    root lhipjoint rhipjoint lowerback
    lhipjoint lfemur
    lfemur ltibia
    ltibia lfoot
    lfoot ltoes
    rhipjoint rfemur
    rfemur rtibia
    rtibia rfoot
    rfoot rtoes
    lowerback upperback
    upperback thorax
    thorax lowerneck lclavicle rclavicle
    lowerneck upperneck
    upperneck head
    lclavicle lhumerus
    lhumerus lradius
    lradius lwrist
    lwrist lhand lthumb
    lhand lfingers
    rclavicle rhumerus
    rhumerus rradius
    rradius rwrist
    rwrist rhand rthumb
    rhand rfingers
  end

#!OML:ASF H:\Punching\Project 1\Capture day 1\Session 1\female.ASF
:FULLY-SPECIFIED
:DEGREES
568
root -1.30225 14.6319 -2.58723 16.7003 -15.423 -5.27572
lowerback -5.88928 2.95535 7.44693
upperback -7.25155 3.6836 -0.920867
thorax -3.75658 1.47147 -5.0174
lowerneck 1.01222 15.0542 24.5638
upperneck 26.3578 24.5345 -17.1641
head 14.3104 12.2489 -6.94029
rclavicle 2.66247e-014 -5.1684e-015
rhumerus -7.55187 37.325 -82.1322
rradius 128.27
rwrist -12.962
rhand -31.089 13.8727
rfingers 7.12502
rthumb -4.36911 -16.0623
lclavicle 2.66247e-014 -5.1684e-015
lhumerus -14.6083 -9.08918 58.8445
lradius 139.763
lwrist -4.74723
lhand -35.9253 3.74855
lfingers 7.12502
lthumb -9.0377 33.5349
rfemur -2.90783 4.43299 25.5369
rtibia 25.1435
rfoot -34.1472 -29.6486
rtoes -6.5806
lfemur -56.6605 4.94187 -3.38083
ltibia 47.2406
lfoot 1.50037 7.02099
ltoes 6.89319
569
root -1.29138 14.6177 -2.55212 16.8371 -15.1616 -5.3678
lowerback -5.95172 3.02031 7.58593
upperback -7.28159 3.76301 -0.903948
thorax -3.73768 1.5056 -5.07153
lowerneck 0.322282 14.8398 24.0625
upperneck 26.7692 24.1056 -16.9659
head 14.3999 11.985 -6.86031
rclavicle 4.08999e-014 3.29983e-014
rhumerus -7.59218 37.5656 -82.406
rradius 128.16
rwrist -12.8289
rhand -31.132 14.0987
rfingers 7.12502
rthumb -4.4106 -15.8354
lclavicle 4.08999e-014 3.29983e-014
lhumerus -15.5053 -8.53334 58.6978
lradius 139.727
lwrist -4.87219
lhand -36.0305 3.5589
lfingers 7.12502
lthumb -9.13919 33.3409
rfemur -2.75846 4.58423 25.6772
rtibia 24.9587
rfoot -34.2843 -29.965
rtoes -6.54509
lfemur -57.4184 5.39558 -3.62596
ltibia 48.1185
lfoot 1.44541 6.22191
ltoes 5.58253
570
root -1.27878 14.6036 -2.51203 16.9584 -14.9643 -5.42775
lowerback -6.00869 3.11421 7.67583
upperback -7.30599 3.88219 -0.903727
thorax -3.71094 1.56208 -5.11369
lowerneck -0.378538 14.6242 23.5803
upperneck 27.1085 23.6732 -16.7942
head 14.4707 11.7192 -6.79002
rclavicle -4.5385e-014 -1.59028e-014
rhumerus -7.62362 37.8152 -82.6733
rradius 128.067
rwrist -12.6074
rhand -31.3034 13.9418
rfingers 7.12502
rthumb -4.57615 -15.9887
lclavicle -4.5385e-014 -1.59028e-014
lhumerus -16.4279 -7.96201 58.5439
lradius 139.731
lwrist -4.89142
lhand -36.0353 3.44849
lfingers 7.12502
lthumb -9.14383 33.2303
rfemur -2.59161 4.74418 25.7528
rtibia 24.7789
rfoot -34.4165 -30.2525
rtoes -6.54952
lfemur -58.0789 5.79839 -3.8797
ltibia 48.9295
lfoot 1.21522 5.56472
ltoes 4.31844
571
root -1.26446 14.5895 -2.46712 17.0644 -14.8251 -5.45264
lowerback -6.0661 3.23319 7.72929
upperback -7.33235 4.03539 -0.921806
thorax -3.68131 1.63694 -5.15272
lowerneck -1.03849 14.4031 23.1083
upperneck 27.3568 23.2372 -16.6446
head 14.5003 11.4544 -6.72988
rclavicle 1.81018e-014 -1.07344e-014
rhumerus -7.66289 38.0618 -82.9454
rradius 127.978
rwrist -12.3295
rhand -31.557 13.5593
rfingers 7.12502
rthumb -4.82094 -16.3659
lclavicle 1.81018e-014 -1.07344e-014
lhumerus -17.3928 -7.38165 58.3823
lradius 139.785
lwrist -4.79841
lhand -35.9116 3.46855
lfingers 7.12502
lthumb -9.02454 33.2555
rfemur -2.40979 4.90127 25.7608
rtibia 24.6076
rfoot -34.5438 -30.5059
rtoes -6.59933
lfemur -58.6452 6.15804 -4.15527
ltibia 49.6633
lfoot 0.822359 5.03587
ltoes 3.13688
572
root -1.24853 14.5753 -2.41766 17.1543 -14.7309 -5.44216
lowerback -6.11627 3.37226 7.74838
upperback -7.36266 4.21668 -0.960057
thorax -3.65583 1.72673 -5.19244
lowerneck -1.65838 14.1798 22.655
upperneck 27.5169 22.8007 -16.5137
head 14.4911 11.1929 -6.67861
rclavicle 7.95139e-015 3.97569e-016
rhumerus -7.7167 38.3096 -83.2242
rradius 127.905
rwrist -11.9471
rhand -31.9173 12.8432
rfingers 7.12502
rthumb -5.16884 -17.0738
lclavicle 7.95139e-015 3.97569e-016
lhumerus -18.4029 -6.78902 58.1861
lradius 139.906
lwrist -4.58281
lhand -35.6548 3.61087
lfingers 7.12502
lthumb -8.7767 33.4084
rfemur -2.21141 5.04624 25.705
rtibia 24.4437
rfoot -34.6628 -30.7297
rtoes -6.69436
lfemur -59.1286 6.4729 -4.46042
ltibia 50.3162
lfoot 0.301194 4.65667
ltoes 2.04801
